<svg width="34" height="34" viewBox="0 0 34 34" fill="none" xmlns="http://www.w3.org/2000/svg">
<path d="M2.92449 17.4928C2.80642 17.1747 2.80642 16.8248 2.92449 16.5068C4.0744 13.7186 6.0263 11.3346 8.53275 9.65705C11.0392 7.97952 13.9873 7.08398 17.0033 7.08398C20.0193 7.08398 22.9675 7.97952 25.4739 9.65705C27.9803 11.3346 29.9322 13.7186 31.0822 16.5068C31.2002 16.8248 31.2002 17.1747 31.0822 17.4928C29.9322 20.281 27.9803 22.665 25.4739 24.3425C22.9675 26.02 20.0193 26.9156 17.0033 26.9156C13.9873 26.9156 11.0392 26.02 8.53275 24.3425C6.0263 22.665 4.0744 20.281 2.92449 17.4928Z" stroke="#FFD900" stroke-width="3" stroke-linecap="round" stroke-linejoin="round"/>
<path d="M17 21.25C19.3472 21.25 21.25 19.3472 21.25 17C21.25 14.6528 19.3472 12.75 17 12.75C14.6528 12.75 12.75 14.6528 12.75 17C12.75 19.3472 14.6528 21.25 17 21.25Z" stroke="#FFD900" stroke-width="3" stroke-linecap="round" stroke-linejoin="round"/>
</svg>
