<svg width="38" height="38" viewBox="0 0 38 38" fill="none" xmlns="http://www.w3.org/2000/svg">
<path d="M4.00935 26.9766C3.42828 27.5575 3.10174 28.3454 3.10156 29.1671V32.5318C3.10156 32.9426 3.26477 33.3367 3.55529 33.6272C3.84581 33.9177 4.23984 34.0809 4.65069 34.0809H9.29808C9.70894 34.0809 10.103 33.9177 10.3935 33.6272C10.684 33.3367 10.8472 32.9426 10.8472 32.5318V30.9826C10.8472 30.5718 11.0104 30.1778 11.3009 29.8872C11.5915 29.5967 11.9855 29.4335 12.3963 29.4335H13.9455C14.3563 29.4335 14.7504 29.2703 15.0409 28.9798C15.3314 28.6893 15.4946 28.2952 15.4946 27.8844V26.3353C15.4946 25.9244 15.6578 25.5304 15.9483 25.2399C16.2388 24.9493 16.6329 24.7861 17.0437 24.7861H17.3102C18.1318 24.786 18.9198 24.4594 19.5007 23.8783L20.7616 22.6173C22.9147 23.3674 25.2585 23.3645 27.4097 22.6092C29.5609 21.8539 31.3921 20.391 32.6037 18.4597C33.8154 16.5284 34.3357 14.243 34.0797 11.9775C33.8236 9.71202 32.8063 7.60047 31.1941 5.98832C29.582 4.37617 27.4705 3.35885 25.205 3.10279C22.9395 2.84672 20.6541 3.36708 18.7228 4.57872C16.7915 5.79037 15.3285 7.62157 14.5733 9.77277C13.818 11.924 13.8151 14.2678 14.5651 16.4208L4.00935 26.9766Z" stroke="#00AC0B" stroke-width="3" stroke-linecap="round" stroke-linejoin="round"/>
<path d="M25.5636 12.3929C25.9914 12.3929 26.3382 12.0461 26.3382 11.6183C26.3382 11.1905 25.9914 10.8438 25.5636 10.8438C25.1358 10.8438 24.7891 11.1905 24.7891 11.6183C24.7891 12.0461 25.1358 12.3929 25.5636 12.3929Z" fill="black" stroke="#00AC0B" stroke-width="3" stroke-linecap="round" stroke-linejoin="round"/>
</svg>
