<svg width="34" height="34" viewBox="0 0 34 34" fill="none" xmlns="http://www.w3.org/2000/svg">
<path d="M5.63632 12.3716C5.42955 11.4401 5.4613 10.4716 5.72863 9.5557C5.99596 8.63982 6.49022 7.80627 7.16557 7.13233C7.84093 6.45838 8.67551 5.96588 9.59195 5.70046C10.5084 5.43505 11.477 5.40533 12.408 5.61405C12.9204 4.81265 13.6263 4.15313 14.4607 3.69629C15.295 3.23946 16.2309 3 17.1822 3C18.1334 3 19.0693 3.23946 19.9036 3.69629C20.738 4.15313 21.4439 4.81265 21.9563 5.61405C22.8887 5.40442 23.859 5.43401 24.7769 5.70007C25.6948 5.96612 26.5305 6.46 27.2063 7.13577C27.882 7.81154 28.3759 8.64724 28.642 9.56514C28.908 10.483 28.9376 11.4533 28.728 12.3857C29.5294 12.8981 30.1889 13.6041 30.6458 14.4384C31.1026 15.2727 31.342 16.2087 31.342 17.1599C31.342 18.1111 31.1026 19.047 30.6458 19.8814C30.1889 20.7157 29.5294 21.4216 28.728 21.9341C28.9367 22.865 28.907 23.8337 28.6416 24.7501C28.3762 25.6665 27.8837 26.5011 27.2097 27.1765C26.5358 27.8518 25.7022 28.3461 24.7863 28.6134C23.8705 28.8807 22.9019 28.9125 21.9705 28.7057C21.4587 29.5102 20.7523 30.1725 19.9165 30.6314C19.0807 31.0903 18.1427 31.3309 17.1892 31.3309C16.2358 31.3309 15.2977 31.0903 14.462 30.6314C13.6262 30.1725 12.9197 29.5102 12.408 28.7057C11.477 28.9144 10.5084 28.8847 9.59195 28.6193C8.67551 28.3539 7.84093 27.8614 7.16557 27.1874C6.49022 26.5135 5.99596 25.68 5.72863 24.7641C5.4613 23.8482 5.42955 22.8796 5.63632 21.9482C4.82876 21.4371 4.16358 20.7301 3.70264 19.8929C3.24171 19.0557 3 18.1156 3 17.1599C3 16.2042 3.24171 15.264 3.70264 14.4268C4.16358 13.5896 4.82876 12.8826 5.63632 12.3716Z" stroke="#2E9D36" stroke-width="3" stroke-linecap="round" stroke-linejoin="round"/>
<path d="M22.849 11.4941H14.349C13.5975 11.4941 12.8768 11.7927 12.3455 12.324C11.8141 12.8554 11.5156 13.576 11.5156 14.3275C11.5156 15.0789 11.8141 15.7996 12.3455 16.3309C12.8768 16.8623 13.5975 17.1608 14.349 17.1608H20.0156C20.7671 17.1608 21.4877 17.4593 22.0191 17.9907C22.5504 18.522 22.849 19.2427 22.849 19.9941C22.849 20.7456 22.5504 21.4663 22.0191 21.9976C21.4877 22.529 20.7671 22.8275 20.0156 22.8275H11.5156" stroke="#2E9D36" stroke-width="3" stroke-linecap="round" stroke-linejoin="round"/>
<path d="M17.1797 25.6602V8.66016" stroke="#2E9D36" stroke-width="3" stroke-linecap="round" stroke-linejoin="round"/>
</svg>
