<svg width="24" height="24" viewBox="0 0 24 24" fill="none" xmlns="http://www.w3.org/2000/svg">
<g clip-path="url(#clip0_5034_12688)">
<path d="M11 15H13C13.5304 15 14.0391 14.7893 14.4142 14.4142C14.7893 14.0391 15 13.5304 15 13C15 12.4696 14.7893 11.9609 14.4142 11.5858C14.0391 11.2107 13.5304 11 13 11H10C9.4 11 8.9 11.2 8.6 11.6L3 17" stroke="currentColor" stroke-width="3" stroke-linecap="round" stroke-linejoin="round"/>
<path d="M7 20.9983L8.6 19.5983C8.9 19.1983 9.4 18.9983 10 18.9983H14C15.1 18.9983 16.1 18.5983 16.8 17.7983L21.4 13.3983C21.7859 13.0336 22.0111 12.5306 22.0261 11.9999C22.0411 11.4692 21.8447 10.9542 21.48 10.5683C21.1153 10.1824 20.6123 9.95721 20.0816 9.94221C19.5508 9.9272 19.0359 10.1236 18.65 10.4883L14.45 14.3883" stroke="currentColor" stroke-width="3" stroke-linecap="round" stroke-linejoin="round"/>
<path d="M2 16L8 22" stroke="currentColor" stroke-width="3" stroke-linecap="round" stroke-linejoin="round"/>
<path d="M16.0016 11.9016C17.6032 11.9016 18.9016 10.6032 18.9016 9.00156C18.9016 7.39994 17.6032 6.10156 16.0016 6.10156C14.3999 6.10156 13.1016 7.39994 13.1016 9.00156C13.1016 10.6032 14.3999 11.9016 16.0016 11.9016Z" stroke="currentColor" stroke-width="3" stroke-linecap="round" stroke-linejoin="round"/>
<path d="M6 8C7.65685 8 9 6.65685 9 5C9 3.34315 7.65685 2 6 2C4.34315 2 3 3.34315 3 5C3 6.65685 4.34315 8 6 8Z" stroke="currentColor" stroke-width="3" stroke-linecap="round" stroke-linejoin="round"/>
</g>
<defs>
<clipPath id="clip0_5034_12688">
<rect width="24" height="24" fill="white"/>
</clipPath>
</defs>
</svg>
