<svg width="34" height="34" viewBox="0 0 34 34" fill="none" xmlns="http://www.w3.org/2000/svg">
<path d="M22.6693 29.75V26.9167C22.6693 25.4138 22.0723 23.9724 21.0095 22.9097C19.9468 21.847 18.5055 21.25 17.0026 21.25H8.5026C6.99971 21.25 5.55837 21.847 4.49567 22.9097C3.43296 23.9724 2.83594 25.4138 2.83594 26.9167V29.75" stroke="#E40D0D" stroke-width="3" stroke-linecap="round" stroke-linejoin="round"/>
<path d="M12.7526 15.5833C15.8822 15.5833 18.4193 13.0463 18.4193 9.91667C18.4193 6.78705 15.8822 4.25 12.7526 4.25C9.62299 4.25 7.08594 6.78705 7.08594 9.91667C7.08594 13.0463 9.62299 15.5833 12.7526 15.5833Z" stroke="#E40D0D" stroke-width="3" stroke-linecap="round" stroke-linejoin="round"/>
<path d="M31.1641 29.7494V26.9161C31.1631 25.6605 30.7452 24.4409 29.976 23.4485C29.2068 22.4562 28.1297 21.7475 26.9141 21.4336" stroke="#E40D0D" stroke-width="3" stroke-linecap="round" stroke-linejoin="round"/>
<path d="M22.6641 4.43359C23.883 4.74569 24.9634 5.45459 25.7349 6.44853C26.5064 7.44248 26.9252 8.66494 26.9252 9.92318C26.9252 11.1814 26.5064 12.4039 25.7349 13.3978C24.9634 14.3918 23.883 15.1007 22.6641 15.4128" stroke="#E40D0D" stroke-width="3" stroke-linecap="round" stroke-linejoin="round"/>
</svg>
