<svg width="26" height="26" viewBox="0 0 26 26" fill="none" xmlns="http://www.w3.org/2000/svg">
<path d="M3.25 3.25V20.5833C3.25 21.158 3.47827 21.7091 3.8846 22.1154C4.29093 22.5217 4.84203 22.75 5.41667 22.75H22.75" stroke="currentColor" stroke-width="3" stroke-linecap="round" stroke-linejoin="round"/>
<path d="M19.5 5.41663H17.3333C16.735 5.41663 16.25 5.90165 16.25 6.49996V17.3333C16.25 17.9316 16.735 18.4166 17.3333 18.4166H19.5C20.0983 18.4166 20.5833 17.9316 20.5833 17.3333V6.49996C20.5833 5.90165 20.0983 5.41663 19.5 5.41663Z" stroke="currentColor" stroke-width="3" stroke-linecap="round" stroke-linejoin="round"/>
<path d="M10.8334 8.66663H8.66671C8.0684 8.66663 7.58337 9.15165 7.58337 9.74996V17.3333C7.58337 17.9316 8.0684 18.4166 8.66671 18.4166H10.8334C11.4317 18.4166 11.9167 17.9316 11.9167 17.3333V9.74996C11.9167 9.15165 11.4317 8.66663 10.8334 8.66663Z" stroke="currentColor" stroke-width="3" stroke-linecap="round" stroke-linejoin="round"/>
</svg>
